<svg width="52" height="52" viewBox="0 0 52 52" fill="none" xmlns="http://www.w3.org/2000/svg">
<g clip-path="url(#clip0_2647_1636)">
<circle cx="26" cy="26" r="26" fill="#131314"/>
<mask id="mask0_2647_1636" style="mask-type:luminance" maskUnits="userSpaceOnUse" x="0" y="0" width="52" height="52">
<circle cx="26" cy="26" r="26" fill="white"/>
</mask>
<g mask="url(#mask0_2647_1636)">
<path d="M35.5599 24.74L34.2099 23.16C33.9599 22.86 33.7499 22.3 33.7499 21.9V20.2C33.7499 19.14 32.8799 18.27 31.8199 18.27H30.1199C29.7199 18.27 29.1499 18.06 28.8499 17.81L27.2699 16.46C26.5799 15.87 25.4499 15.87 24.7599 16.46L23.1599 17.81C22.8599 18.06 22.2999 18.27 21.8999 18.27H20.1699C19.1099 18.27 18.2399 19.14 18.2399 20.2V21.9C18.2399 22.29 18.0399 22.85 17.7899 23.15L16.4399 24.74C15.8599 25.44 15.8599 26.56 16.4399 27.24L17.7899 28.83C18.0399 29.12 18.2399 29.69 18.2399 30.08V31.79C18.2399 32.85 19.1099 33.72 20.1699 33.72H21.9099C22.2999 33.72 22.8699 33.93 23.1699 34.18L24.7499 35.53C25.4399 36.12 26.5699 36.12 27.2599 35.53L28.8399 34.18C29.1399 33.93 29.6999 33.72 30.0999 33.72H31.7999C32.8599 33.72 33.7299 32.85 33.7299 31.79V30.09C33.7299 29.69 33.9399 29.13 34.1899 28.83L35.5399 27.25C36.1499 26.57 36.1499 25.44 35.5599 24.74ZM28.8099 30.24L27.8299 28.04C27.7999 28.04 27.7699 28.06 27.7399 28.06H24.2399C24.2099 28.06 24.1799 28.05 24.1499 28.04L23.1699 30.24L21.7999 29.63L25.2999 21.75H26.6699L30.1699 29.63L28.8099 30.24Z" fill="white"/>
<path d="M24.8201 26.56H27.1801L26.0001 23.91L24.8201 26.56Z" fill="white"/>
</g>
</g>
<defs>
<clipPath id="clip0_2647_1636">
<rect width="52" height="52" fill="white"/>
</clipPath>
</defs>
</svg>
