<svg width="52" height="52" viewBox="0 0 52 52" fill="none" xmlns="http://www.w3.org/2000/svg">
<g clip-path="url(#clip0_2647_1629)">
<circle cx="26" cy="26" r="26" fill="#131314"/>
<mask id="mask0_2647_1629" style="mask-type:luminance" maskUnits="userSpaceOnUse" x="0" y="0" width="52" height="52">
<circle cx="26" cy="26" r="26" fill="white"/>
</mask>
<g mask="url(#mask0_2647_1629)">
<path d="M33.4043 23.0043C32.9987 23.0043 32.6763 23.3267 32.6763 23.7323V25.3755C32.6763 29.0571 29.6811 32.0523 25.9995 32.0523C22.3179 32.0523 19.3227 29.0571 19.3227 25.3755V23.7219C19.3227 23.3163 19.0003 22.9939 18.5947 22.9939C18.1891 22.9939 17.8667 23.3163 17.8667 23.7219V25.3651C17.8667 29.5979 21.1219 33.0819 25.2715 33.4563V35.6715C25.2715 36.0771 25.5939 36.3995 25.9995 36.3995C26.4051 36.3995 26.7275 36.0771 26.7275 35.6715V33.4563C30.8667 33.0923 34.1323 29.5979 34.1323 25.3651V23.7219C34.1219 23.3267 33.7995 23.0043 33.4043 23.0043Z" fill="white"/>
<path d="M25.9996 15.5995C23.462 15.5995 21.4028 17.6587 21.4028 20.1963V25.5211C21.4028 28.0587 23.462 30.1179 25.9996 30.1179C28.5372 30.1179 30.5964 28.0587 30.5964 25.5211V20.1963C30.5964 17.6587 28.5372 15.5995 25.9996 15.5995ZM27.362 22.8275C27.2892 23.0979 27.05 23.2747 26.7796 23.2747C26.7276 23.2747 26.6756 23.2643 26.6236 23.2539C26.218 23.1395 25.7916 23.1395 25.386 23.2539C25.0532 23.3475 24.7308 23.1499 24.6476 22.8275C24.554 22.5051 24.7516 22.1723 25.074 22.0891C25.6876 21.9227 26.3324 21.9227 26.946 22.0891C27.258 22.1723 27.4452 22.5051 27.362 22.8275ZM27.9132 20.8099C27.8196 21.0595 27.5908 21.2051 27.3412 21.2051C27.2684 21.2051 27.206 21.1947 27.1332 21.1739C26.4052 20.9035 25.594 20.9035 24.866 21.1739C24.554 21.2883 24.2004 21.1219 24.086 20.8099C23.9716 20.4979 24.138 20.1443 24.45 20.0403C25.4484 19.6763 26.5508 19.6763 27.5492 20.0403C27.8612 20.1547 28.0276 20.4979 27.9132 20.8099Z" fill="white"/>
</g>
</g>
<defs>
<clipPath id="clip0_2647_1629">
<rect width="52" height="52" fill="white"/>
</clipPath>
</defs>
</svg>
