<svg width="52" height="52" viewBox="0 0 52 52" fill="none" xmlns="http://www.w3.org/2000/svg">
<g clip-path="url(#clip0_2647_1645)">
<circle cx="26" cy="26" r="26" fill="#131314"/>
<mask id="mask0_2647_1645" style="mask-type:luminance" maskUnits="userSpaceOnUse" x="0" y="0" width="52" height="52">
<circle cx="26" cy="26" r="26" fill="white"/>
</mask>
<g mask="url(#mask0_2647_1645)">
<path d="M33.5 21.5L32.01 22.99L29.01 19.99L30.5 18.5C30.92 18.08 31.46 17.88 32 17.88C32.54 17.88 33.08 18.08 33.5 18.5C34.33 19.33 34.33 20.67 33.5 21.5Z" fill="white"/>
<path d="M31.3099 23.7L20.4999 34.5C19.6699 35.33 18.3299 35.33 17.4999 34.5C16.6699 33.67 16.6699 32.33 17.4999 31.5L28.3099 20.7L31.3099 23.7Z" fill="white"/>
<path d="M23.95 17.5L24.36 16.11C24.4 15.98 24.36 15.84 24.27 15.74C24.18 15.64 24.02 15.6 23.89 15.64L22.5 16.05L21.11 15.64C20.98 15.6 20.84 15.64 20.74 15.73C20.64 15.83 20.61 15.97 20.65 16.1L21.05 17.5L20.64 18.89C20.6 19.02 20.64 19.16 20.73 19.26C20.83 19.36 20.97 19.39 21.1 19.35L22.5 18.95L23.89 19.36C23.93 19.37 23.96 19.38 24 19.38C24.1 19.38 24.19 19.34 24.27 19.27C24.37 19.17 24.4 19.03 24.36 18.9L23.95 17.5Z" fill="white"/>
<path d="M19.95 23.5L20.36 22.11C20.4 21.98 20.36 21.84 20.27 21.74C20.17 21.64 20.03 21.61 19.9 21.65L18.5 22.05L17.11 21.64C16.98 21.6 16.84 21.64 16.74 21.73C16.64 21.83 16.61 21.97 16.65 22.1L17.05 23.5L16.64 24.89C16.6 25.02 16.64 25.16 16.73 25.26C16.83 25.36 16.97 25.39 17.1 25.35L18.49 24.94L19.88 25.35C19.91 25.36 19.95 25.36 19.99 25.36C20.09 25.36 20.18 25.32 20.26 25.25C20.36 25.15 20.39 25.01 20.35 24.88L19.95 23.5Z" fill="white"/>
<path d="M34.95 28.5L35.36 27.11C35.4 26.98 35.36 26.84 35.27 26.74C35.17 26.64 35.03 26.61 34.9 26.65L33.51 27.06L32.12 26.65C31.99 26.61 31.85 26.65 31.75 26.74C31.65 26.84 31.62 26.98 31.66 27.11L32.07 28.5L31.66 29.89C31.62 30.02 31.66 30.16 31.75 30.26C31.85 30.36 31.99 30.39 32.12 30.35L33.51 29.94L34.9 30.35C34.93 30.36 34.97 30.36 35.01 30.36C35.11 30.36 35.2 30.32 35.28 30.25C35.38 30.15 35.41 30.01 35.37 29.88L34.95 28.5Z" fill="white"/>
</g>
</g>
<defs>
<clipPath id="clip0_2647_1645">
<rect width="52" height="52" fill="white"/>
</clipPath>
</defs>
</svg>
