<svg width="498" height="192" viewBox="0 0 498 192" fill="none" xmlns="http://www.w3.org/2000/svg">
<g filter="url(#filter0_d_2017_1613)">
<path opacity="0.7" d="M96.4688 127.544H62.8688L57.7616 143H30.0752L64.616 48.248H94.9904L129.397 143H101.576L96.4688 127.544ZM89.8832 107.384L79.6688 76.7408L69.5888 107.384H89.8832ZM163.787 48.248V103.218C163.787 108.325 164.952 112.267 167.282 115.045C169.701 117.822 173.33 119.211 178.168 119.211C183.007 119.211 186.635 117.822 189.055 115.045C191.563 112.178 192.818 108.235 192.818 103.218V48.248H219.16V103.218C219.16 111.909 217.323 119.346 213.65 125.528C209.976 131.621 204.959 136.235 198.597 139.371C192.325 142.418 185.336 143.941 177.631 143.941C169.925 143.941 163.026 142.418 156.933 139.371C150.93 136.235 146.181 131.621 142.687 125.528C139.282 119.435 137.579 111.998 137.579 103.218V48.248H163.787ZM271.162 48.248C281.107 48.248 289.798 50.264 297.235 54.296C304.762 58.2384 310.541 63.7936 314.573 70.9616C318.605 78.1296 320.621 86.328 320.621 95.5568C320.621 104.696 318.56 112.85 314.438 120.018C310.406 127.186 304.627 132.83 297.101 136.952C289.664 140.984 281.018 143 271.162 143H233.664V48.248H271.162ZM269.146 119.749C276.851 119.749 282.899 117.643 287.29 113.432C291.68 109.221 293.875 103.262 293.875 95.5568C293.875 87.7616 291.68 81.7584 287.29 77.5472C282.899 73.2464 276.851 71.096 269.146 71.096H260.006V119.749H269.146ZM358.838 48.248V143H332.495V48.248H358.838ZM419.266 143.941C410.396 143.941 402.242 141.88 394.805 137.758C387.369 133.547 381.455 127.768 377.065 120.421C372.764 112.984 370.613 104.606 370.613 95.288C370.613 85.9696 372.764 77.6368 377.065 70.2896C381.455 62.8528 387.369 57.0736 394.805 52.952C402.242 48.8304 410.396 46.7696 419.266 46.7696C428.226 46.7696 436.38 48.8304 443.727 52.952C451.164 57.0736 457.033 62.8528 461.333 70.2896C465.634 77.6368 467.785 85.9696 467.785 95.288C467.785 104.606 465.634 112.984 461.333 120.421C457.033 127.768 451.164 133.547 443.727 137.758C436.29 141.88 428.137 143.941 419.266 143.941ZM419.266 119.48C425.986 119.48 431.273 117.285 435.125 112.894C439.068 108.504 441.039 102.635 441.039 95.288C441.039 87.7616 439.068 81.848 435.125 77.5472C431.273 73.1568 425.986 70.9616 419.266 70.9616C412.457 70.9616 407.125 73.1568 403.273 77.5472C399.42 81.848 397.493 87.7616 397.493 95.288C397.493 102.725 399.42 108.638 403.273 113.029C407.125 117.33 412.457 119.48 419.266 119.48Z" fill="white"/>
</g>
<defs>
<filter id="filter0_d_2017_1613" x="0.0761719" y="28.7695" width="497.709" height="157.171" filterUnits="userSpaceOnUse" color-interpolation-filters="sRGB">
<feFlood flood-opacity="0" result="BackgroundImageFix"/>
<feColorMatrix in="SourceAlpha" type="matrix" values="0 0 0 0 0 0 0 0 0 0 0 0 0 0 0 0 0 0 127 0" result="hardAlpha"/>
<feOffset dy="12"/>
<feGaussianBlur stdDeviation="15"/>
<feComposite in2="hardAlpha" operator="out"/>
<feColorMatrix type="matrix" values="0 0 0 0 0 0 0 0 0 0 0 0 0 0 0 0 0 0 0.15 0"/>
<feBlend mode="normal" in2="BackgroundImageFix" result="effect1_dropShadow_2017_1613"/>
<feBlend mode="normal" in="SourceGraphic" in2="effect1_dropShadow_2017_1613" result="shape"/>
</filter>
</defs>
</svg>
