<svg xmlns="http://www.w3.org/2000/svg" version="1.1" xmlns:xlink="http://www.w3.org/1999/xlink" width="512" height="512" x="0" y="0" viewBox="0 0 512 512" style="enable-background:new 0 0 512 512" xml:space="preserve" class=""><defs><linearGradient id="a" x1="39.39" x2="472.61" y1="64.38" y2="497.59" gradientUnits="userSpaceOnUse"><stop offset="0" stop-color="#efe1e2"></stop><stop offset="1" stop-color="#efc4ca"></stop></linearGradient><linearGradient id="b" x1="111.42" x2="400.58" y1="-7.65" y2="281.51" gradientUnits="userSpaceOnUse"><stop offset="0" stop-color="#f95f68"></stop><stop offset="1" stop-color="#eb3d46"></stop></linearGradient><linearGradient id="a" x1="39.39" x2="472.61" y1="64.38" y2="497.59" gradientUnits="userSpaceOnUse"><stop offset="0" stop-color="#efe1e2"></stop><stop offset="1" stop-color="#efc4ca"></stop></linearGradient><linearGradient id="a" x1="39.39" x2="472.61" y1="64.38" y2="497.59" gradientUnits="userSpaceOnUse"><stop offset="0" stop-color="#efe1e2"></stop><stop offset="1" stop-color="#efc4ca"></stop></linearGradient><linearGradient id="b" x1="111.42" x2="400.58" y1="-7.65" y2="281.51" gradientUnits="userSpaceOnUse"><stop offset="0" stop-color="#f95f68"></stop><stop offset="1" stop-color="#eb3d46"></stop></linearGradient><linearGradient id="a" x1="39.39" x2="472.61" y1="64.38" y2="497.59" gradientUnits="userSpaceOnUse"><stop offset="0" stop-color="#efe1e2"></stop><stop offset="1" stop-color="#efc4ca"></stop></linearGradient><linearGradient id="b" x1="111.42" x2="400.58" y1="-7.65" y2="281.51" gradientUnits="userSpaceOnUse"><stop offset="0" stop-color="#f95f68"></stop><stop offset="1" stop-color="#eb3d46"></stop></linearGradient><linearGradient id="a" x1="39.39" x2="472.61" y1="64.38" y2="497.59" gradientUnits="userSpaceOnUse"><stop offset="0" stop-color="#efe1e2"></stop><stop offset="1" stop-color="#efc4ca"></stop></linearGradient><linearGradient id="a" x1="39.39" x2="472.61" y1="64.38" y2="497.59" gradientUnits="userSpaceOnUse"><stop offset="0" stop-color="#efe1e2"></stop><stop offset="1" stop-color="#efc4ca"></stop></linearGradient><linearGradient id="b" x1="111.42" x2="400.58" y1="-7.65" y2="281.51" gradientUnits="userSpaceOnUse"><stop offset="0" stop-color="#f95f68"></stop><stop offset="1" stop-color="#eb3d46"></stop></linearGradient></defs><g><linearGradient id="a" x1="39.39" x2="472.61" y1="64.38" y2="497.59" gradientUnits="userSpaceOnUse"><stop offset="0" stop-color="#efe1e2"></stop><stop offset="1" stop-color="#efc4ca"></stop></linearGradient><linearGradient id="b" x1="111.42" x2="400.58" y1="-7.65" y2="281.51" gradientUnits="userSpaceOnUse"><stop offset="0" stop-color="#f95f68"></stop><stop offset="1" stop-color="#eb3d46"></stop></linearGradient><linearGradient xlink:href="#a" id="c" x1="348.08" x2="406.07" y1="29.05" y2="87.04"></linearGradient><linearGradient xlink:href="#a" id="d" x1="105.93" x2="163.92" y1="29.05" y2="87.04"></linearGradient><linearGradient xlink:href="#b" id="e" x1="139.32" x2="357.79" y1="231.81" y2="450.28"></linearGradient><g data-name="39"><rect width="512" height="462.03" y="49.97" rx="67.66" fill="#000000" opacity="1" data-original="#000000" class=""></rect><path fill="url(&quot;#a&quot;)" d="M444.34 502H67.66C35.85 502 10 476.15 10 444.34V117.62c0-31.81 25.85-57.66 57.66-57.66h376.68c31.81 0 57.66 25.85 57.66 57.66v326.72c0 31.81-25.85 57.66-57.66 57.66z" opacity="1" data-original="url(#a)" class=""></path><path fill="url(&quot;#b&quot;)" d="M502 180.09H10v-62.46c0-31.81 25.85-57.66 57.66-57.66h376.68c31.81 0 57.66 25.85 57.66 57.66z" opacity="1" data-original="url(#b)"></path><path d="M377.08 116.09c-18.76 0-34.02-15.26-34.02-34.02V34.02C343.06 15.26 358.32 0 377.08 0s34.02 15.26 34.02 34.02v48.05c0 18.76-15.26 34.02-34.02 34.02z" fill="#000000" opacity="1" data-original="#000000" class=""></path><path fill="url(&quot;#a&quot;)" d="M377.08 106.09c-13.26 0-24.02-10.76-24.02-24.02V34.02c0-13.26 10.76-24.02 24.02-24.02s24.02 10.76 24.02 24.02v48.05c0 13.26-10.76 24.02-24.02 24.02z" opacity="1" data-original="url(#a)" class=""></path><path d="M134.92 116.09c-18.76 0-34.02-15.26-34.02-34.02V34.02C100.9 15.26 116.16 0 134.92 0s34.02 15.26 34.02 34.02v48.05c0 18.76-15.26 34.02-34.02 34.02z" fill="#000000" opacity="1" data-original="#000000" class=""></path><path fill="url(&quot;#a&quot;)" d="M134.92 106.09c-13.26 0-24.02-10.76-24.02-24.02V34.02c0-13.26 10.76-24.02 24.02-24.02s24.02 10.76 24.02 24.02v48.05c0 13.26-10.76 24.02-24.02 24.02z" opacity="1" data-original="url(#a)" class=""></path><path d="M347.03 422.14c-13.23 0-23.61-3.1-30.87-9.22-.98-.83-1.9-1.71-2.76-2.63v1.85c0 5.52-4.48 10-10 10h-87.27c-5.52 0-10-4.48-10-10v-11.2c-1.95 4.71-4.87 8.71-8.75 11.98-7.25 6.12-17.64 9.22-30.87 9.22h-65.33c-5.52 0-10-4.48-10-10v-142.2c0-5.52 4.48-10 10-10h65.34c20.17 0 33.92 7.59 39.61 21.32v-11.32c0-5.52 4.48-10 10-10h85.27c5.52 0 10 4.48 10 10v4.33c7.03-9.29 19.2-14.33 35.62-14.33h31.23c27.05 0 42.56 13.66 42.56 37.46v25.69c0 5.52-4.48 10-10 10h-38.76c-3.82 0-7.14-2.14-8.83-5.3v27.36c1.68-3.15 5-5.3 8.83-5.3h38.76c5.52 0 10 4.48 10 10v24.81c0 12.2-3.93 21.7-11.69 28.24-7.25 6.12-17.64 9.22-30.87 9.22h-31.23zm-196.71-45.47v-71.25h-.38v71.25zm153.08-2.21c.36 0 .72.02 1.07.06V357.5c-1.32 3.97-5.07 6.84-9.49 6.84h-30.09v10.12zm-8.42-57.81c4.42 0 8.17 2.86 9.49 6.84v-16.33c-.97.31-2 .48-3.07.48h-36.51v9.01z" fill="#000000" opacity="1" data-original="#000000" class=""></path><path fill="url(&quot;#b&quot;)" d="M101.18 269.94h65.34c21.71 0 32.56 9.16 32.56 27.46v87.27c0 18.31-10.85 27.47-32.56 27.47h-65.34zm59.14 111.85v-81.51c0-3.25-1.85-4.87-5.54-4.87h-14.84v91.25h14.84c3.69 0 5.54-1.62 5.54-4.87zm94.58 2.66h48.51v27.69h-87.27v-142.2h85.27v27.69H254.9v29.02h40.09v27.69H254.9v30.12zm155.93-61.35h-38.76v-22.81c0-3.25-1.85-4.87-5.54-4.87h-7.75c-3.69 0-5.54 1.63-5.54 4.87v81.51c0 3.25 1.84 4.87 5.54 4.87h7.75c3.69 0 5.54-1.62 5.54-4.87v-21.93h38.76v24.81c0 18.31-10.85 27.47-32.56 27.47h-31.23c-21.71 0-32.56-9.15-32.56-27.47v-87.27c0-18.31 10.85-27.46 32.56-27.46h31.23c21.71 0 32.56 9.16 32.56 27.46z" opacity="1" data-original="url(#b)"></path><path d="M3 175.09h506v10H3z" fill="#000000" opacity="1" data-original="#000000" class=""></path></g></g></svg>