<svg xmlns="http://www.w3.org/2000/svg" version="1.1" xmlns:xlink="http://www.w3.org/1999/xlink" width="512" height="512" x="0" y="0" viewBox="0 0 60 60" style="enable-background:new 0 0 512 512" xml:space="preserve" class=""><g><path fill="#F74850" d="M31.688 59.417a.5.5 0 0 1-.277-.916l11.319-7.537-14.486 8.363a.5.5 0 0 1-.521-.852l12.5-8.082-14.881 8.59a.5.5 0 0 1-.519-.854L38.075 49.7l-15.17 8.759a.5.5 0 0 1-.517-.855l14.772-9.341-16.48 9.514a.5.5 0 0 1-.519-.854l19.124-12.187-20.956 12.1a.5.5 0 0 1-.517-.856L36.817 44l-20.5 11.833a.5.5 0 0 1-.515-.857l19.339-12.107-20.6 11.9a.5.5 0 0 1-.514-.858l18.622-11.59-19.68 11.363a.5.5 0 0 1-.512-.859l15.651-9.635-16.421 9.48a.5.5 0 0 1-.515-.857l23.208-14.54-24.245 14a.5.5 0 0 1-.508-.862l1.925-1.159-2.178 1.255a.5.5 0 0 1-.515-.858l22.815-14.211L8.071 49.063a.5.5 0 0 1-.514-.857L30.83 33.713 6.876 47.542a.5.5 0 0 1-.511-.859l13.68-8.341L6.082 46.4a.5.5 0 0 1-.513-.857l21.513-13.314L5.149 44.891a.5.5 0 0 1-.511-.859l17.409-10.68-17.634 10.18a.5.5 0 0 1-.509-.86l7.575-4.583L3.9 42.466a.5.5 0 0 1-.511-.859L21.87 30.235 3.268 40.976a.5.5 0 0 1-.515-.857l23.833-14.885L2.6 39.085a.5.5 0 0 1-.51-.859l10.583-6.437-10.441 6.024a.5.5 0 0 1-.507-.861l.479-.288-.216.124a.5.5 0 0 1-.514-.857l20.8-12.944-20.649 11.92a.5.5 0 0 1-.51-.86l6.9-4.189-6.554 3.785a.5.5 0 0 1-.515-.858l18.859-11.74L1.312 31.721a.5.5 0 0 1-.51-.86l9.718-5.945-9.236 5.332a.5.5 0 0 1-.514-.857l16.405-10.223L1.364 28.3a.5.5 0 0 1-.514-.857l15.208-9.5L1.576 26.3a.5.5 0 0 1-.514-.858l12.45-7.758-11.591 6.691a.5.5 0 0 1-.512-.858l4.963-3.052-4.079 2.354a.5.5 0 0 1-.518-.855l12.2-7.719L3 20.579a.5.5 0 0 1-.516-.856l7.246-4.545L3.81 18.6a.5.5 0 0 1-.527-.849L15.83 9.406 5.5 15.369a.5.5 0 0 1-.523-.851l5.585-3.646-3.253 1.879a.5.5 0 0 1-.554-.83l5.8-4.44a.5.5 0 0 1-.439-.895l6.596-3.806a.5.5 0 0 1 .554.83l-5.774 4.416L25.908.858a.5.5 0 0 1 .524.852L20.84 5.359 29.058.615a.5.5 0 0 1 .526.849L17.039 9.8 32.716.753a.5.5 0 0 1 .515.856l-7.226 4.536 8.833-5.1a.5.5 0 0 1 .517.855l-12.21 7.726 13.986-8.074a.5.5 0 0 1 .512.858L32.69 5.456 38.678 2a.5.5 0 0 1 .514.857l-12.455 7.761 13.772-7.95a.5.5 0 0 1 .514.856L25.805 13.03l16.549-9.553a.5.5 0 0 1 .514.857L26.476 14.55l17.6-10.16a.5.5 0 0 1 .511.859L34.853 11.2l10.481-6.049a.5.5 0 0 1 .515.858L26.993 17.747 46.925 6.24a.5.5 0 0 1 .51.861l-6.892 4.182 7.388-4.264a.5.5 0 0 1 .514.857L27.65 20.817 49.383 8.271a.5.5 0 0 1 .508.861l-.5.3.755-.432a.5.5 0 0 1 .509.859L40.063 16.3l11-6.35a.5.5 0 0 1 .514.857L27.752 25.685l24.615-14.211a.5.5 0 0 1 .512.858L34.408 23.7l18.934-10.935a.5.5 0 0 1 .509.86l-7.581 4.587 7.741-4.47a.5.5 0 0 1 .511.859L37.1 25.291l17.721-10.232a.5.5 0 0 1 .513.857L33.808 29.241l21.858-12.619a.5.5 0 0 1 .511.859L42.5 25.821l13.758-7.942a.5.5 0 0 1 .514.857L33.511 33.222 56.983 19.67a.5.5 0 0 1 .515.857L34.684 34.739l22.9-13.218a.5.5 0 0 1 .508.862l-1.949 1.174 1.724-.995a.5.5 0 0 1 .516.856L35.167 37.96l23.122-13.349a.5.5 0 0 1 .512.859L43.158 35.1l15.364-8.871a.5.5 0 0 1 .514.858L40.414 38.67l18.27-10.548a.5.5 0 0 1 .515.857L39.861 41.092l18.844-10.879a.5.5 0 0 1 .517.855l-19 11.973 18.353-10.6a.5.5 0 0 1 .519.855l-19.125 12.19 18.248-10.535a.5.5 0 0 1 .517.856l-14.768 9.336L57.7 37.215a.5.5 0 0 1 .519.854L44.961 46.5l11.976-6.914a.5.5 0 0 1 .522.852l-12.5 8.082 10.831-6.25a.5.5 0 0 1 .527.848L45 50.656l8.953-5.169a.5.5 0 0 1 .527.849l-5.69 3.783 2.955-1.706a.5.5 0 0 1 .532.846l-3.219 2.2a.5.5 0 0 1 .108.912L39.753 57.8a.5.5 0 0 1-.532-.846l1.5-1.025-5.16 2.978a.5.5 0 0 1-.526-.848l5.691-3.784-8.788 5.075a.494.494 0 0 1-.25.067z" opacity="1" data-original="#f74850" class=""></path><g fill="#FFFFFF"><path d="M37.574 42.22a.5.5 0 0 1-.363-.843l1.694-1.8-2.34 1.351a.5.5 0 0 1-.6-.792l1.335-1.282-1.783 1.029a.5.5 0 0 1-.58-.808l.661-.582-.936.54A.5.5 0 0 1 34 38.9a.5.5 0 0 1 .069-.666l.866-.779-1.185.684a.5.5 0 0 1-.63-.758l1.962-2.29-2.782 1.601a.5.5 0 0 1-.574-.814l.292-.247-.5.287a.5.5 0 0 1-.6-.787l1.482-1.465-1.985 1.146a.5.5 0 1 1-.5-.866l5.321-3.071a.5.5 0 0 1 .6.787l-1.476 1.465 1.982-1.144a.5.5 0 0 1 .573.815l-.288.243.49-.282a.5.5 0 0 1 .63.758l-1.962 2.291 2.777-1.6a.5.5 0 0 1 .585.8l-.863.775 1.179-.68a.5.5 0 0 1 .58.808l-.666.586.938-.541a.5.5 0 0 1 .6.792l-1.328 1.283 1.774-1.023a.5.5 0 0 1 .614.775l-1.7 1.8.839-.484a.5.5 0 1 1 .5.865l-3.793 2.189a.49.49 0 0 1-.247.067zM33.271 23.054a.5.5 0 0 1-.328-.878l3.43-2.967a.5.5 0 0 1 .2-.644l1.665-.961a.5.5 0 0 1 .577.811l-1.243 1.076 1.9-1.1a.5.5 0 0 1 .5.865l-6.454 3.726a.5.5 0 0 1-.247.072z" fill="#FFFFFF" opacity="1" data-original="#ffffff"></path><path d="M20.847 42.215a.5.5 0 0 1-.309-.894l2.032-1.6-2.489 1.436a.5.5 0 0 1-.524-.85l.42-.276-.649.374a.5.5 0 0 1-.534-.844l6.629-4.585-7.109 4.1a.5.5 0 0 1-.522-.852l5.635-3.666L19.9 36.6a.5.5 0 0 1-.532-.846l10.86-7.372-5.062 2.922a.5.5 0 0 1-.535-.844l5.862-4.06-5.357 3.093a.5.5 0 0 1-.582-.806l.758-.673-1.049.605a.5.5 0 0 1-.584-.8l.852-.765-1.166.673a.5.5 0 0 1-.577-.811l.5-.434-.742.428a.5.5 0 0 1-.578-.809l.582-.507-.837.482a.5.5 0 0 1-.622-.766l1.864-2.081-2.594 1.5a.5.5 0 0 1-.606-.784l1.566-1.592-2.115 1.22a.5.5 0 0 1-.627-.76L20.5 20.6l-2.2 1.271a.5.5 0 0 1-.588-.8l1.972-1.8-.012-.021a.5.5 0 0 1 .183-.683l1.665-.961a.5.5 0 0 1 .587.8l-.342.314.834-.482a.5.5 0 0 1 .627.761l-1.918 2.2 2.7-1.559a.5.5 0 0 1 .606.783l-1.567 1.594 2.121-1.224a.5.5 0 0 1 .622.767l-1.863 2.08 2.6-1.5a.5.5 0 0 1 .579.809l-.582.508.84-.485a.5.5 0 0 1 .577.81l-.5.437.748-.432a.5.5 0 0 1 .584.8l-.853.765 1.169-.674a.5.5 0 0 1 .582.806l-.758.673 11.627-6.713a.5.5 0 0 1 .535.844l-5.875 4.07 6.405-3.7a.5.5 0 0 1 .532.847l-10.857 7.37 7.92-4.572a.5.5 0 0 1 .523.851L34.1 28.816l1.445-.834a.5.5 0 0 1 .534.844l-6.633 4.589 5.281-3.049a.5.5 0 0 1 .524.851l-6.481 4.249a.463.463 0 0 1 .032.042.5.5 0 0 1-.106.674l-3.729 2.93a.5.5 0 0 1-.052.831l-3.818 2.2a.493.493 0 0 1-.25.072z" fill="#FFFFFF" opacity="1" data-original="#ffffff"></path></g><path fill="#262626" d="m39.62 34.444-4.569-4.569c1.782-3.032 10.7-7.091 6.172-10.55-3.978-5.109-7.905 3.461-11.1 5.624C27 23.007 23.635 15 19.624 18.727c-6.161 3.874 3.029 7.927 5.325 11.4-1.782 3.032-10.7 7.091-6.172 10.55 3.978 5.109 7.9-3.461 11.1-5.624 2.558 2.335 4.755 5.21 7.524 7.252 2.2.572 4.069-1.914 5.2-3.469.533-1.972-1.984-3.014-2.981-4.392zm.734 5.434c-.562.562-1.4 1.986-2.314 1.422-2.47-2.406-4.894-4.937-7.368-7.368-2.875-.957-7.982 10.6-10.31 6.411-1.7-1.263-2.2-2.689-.218-4q3.111-3.109 6.221-6.221c-.037-1.334-2.357-2.471-3.191-3.692-1.24-1.8-6.11-4.013-3.528-6.311 1.126-1.6 2.265-2.124 3.461-.274 2.239 1.411 4.929 6.786 7.475 6.061 2.185-1.265 7.274-9.841 9.056-6.253 4.718 2.918-4.322 7.373-6 10.219.253 2.828 9.948 6.978 6.716 10.006z" opacity="1" data-original="#262626"></path><path fill="#262626" d="M40.175 2.265C-8.479-10.88-14.593 64.973 35.782 58.829 64.648 53.6 68.091 11.757 40.175 2.265zm18.1 27.82c-3.775 48.5-73.74 28.34-52.609-14.743C19.748-9.454 58.73 1.914 58.274 30.085z" opacity="1" data-original="#262626"></path></g></svg>