<svg width="60" height="60" viewBox="0 0 60 60" fill="none" xmlns="http://www.w3.org/2000/svg">
<circle cx="30" cy="30" r="23.3582" fill="#1F1F1F" style="mix-blend-mode:luminosity"/>
<circle cx="30" cy="30" r="23.3582" stroke="#10D6EF" stroke-width="13.2836"/>
<circle cx="30" cy="30" r="29" stroke="#0B9ACB" stroke-width="2"/>
<circle cx="29.7797" cy="29.7797" r="21.6155" fill="#2D2C32" stroke="#0BB6D4" stroke-width="1.32836"/>
<path d="M20 25.5795C20.0616 25.1444 20.1085 24.7069 20.1868 24.275C20.6307 21.8287 22.3626 20.1642 24.8389 20.0789C27.8205 19.9765 30.8111 19.9711 33.7922 20.0785C36.4874 20.1755 38.4393 22.1712 38.5235 24.8673C38.6131 27.7302 38.6131 30.6001 38.5235 33.463C38.4393 36.1591 36.4881 38.1545 33.7924 38.2518C30.8113 38.3594 27.8201 38.3621 24.8392 38.2502C22.1435 38.1489 20.28 36.1487 20.0997 33.4485C20.0842 33.215 20.0341 32.9834 20 32.751C20 30.3604 20 27.9698 20 25.5795ZM29.2979 36.6539C30.6622 36.6539 32.0278 36.6948 33.3903 36.6445C35.5266 36.5652 36.8406 35.2903 36.8905 33.1561C36.9523 30.4967 36.9523 27.8338 36.8905 25.1742C36.8406 23.0404 35.5257 21.7357 33.3903 21.6903C30.68 21.633 27.9667 21.6335 25.2564 21.6903C23.1373 21.7348 21.8195 23.0131 21.7619 25.1234C21.6888 27.8164 21.6888 30.5141 21.7619 33.2071C21.8195 35.3172 23.1373 36.5659 25.2566 36.6445C26.602 36.6945 27.9507 36.6539 29.2979 36.6539Z" fill="white"/>
<path d="M29.294 24.4297C26.6778 24.4297 24.5566 26.5506 24.5566 29.1668C24.5566 31.7833 26.6778 33.9042 29.294 33.9042C31.9105 33.9042 34.0314 31.7833 34.0314 29.1668C34.0314 26.5506 31.9105 24.4297 29.294 24.4297ZM29.294 32.2732C27.5784 32.2732 26.1877 30.8825 26.1877 29.1668C26.1877 27.4512 27.5784 26.0605 29.294 26.0605C31.0097 26.0605 32.4004 27.4512 32.4004 29.1668C32.4004 30.8825 31.0097 32.2732 29.294 32.2732Z" fill="white"/>
<path d="M35.4367 24.2141C35.4367 24.8364 34.9321 25.341 34.3098 25.341C33.6874 25.341 33.1826 24.8364 33.1826 24.2141C33.1826 23.5915 33.6874 23.0869 34.3098 23.0869C34.9321 23.0869 35.4367 23.5915 35.4367 24.2141Z" fill="white"/>
</svg>
