<svg width="64" height="64" viewBox="0 0 64 64" fill="none" xmlns="http://www.w3.org/2000/svg">
<circle cx="32" cy="32" r="25.3582" fill="#1F1F1F" style="mix-blend-mode:luminosity"/>
<circle cx="32" cy="32" r="25.3582" stroke="#10D6EF" stroke-width="13.2836"/>
<circle cx="32" cy="32" r="31" stroke="#0B9ACB" stroke-width="2"/>
<circle cx="32.2181" cy="31.0101" r="23.1008" fill="#2D2C32" stroke="#0BB6D4" stroke-width="1.32836"/>
<path d="M41.0566 33.3074V39.849H37.1735V33.7458C37.1735 32.2133 36.6128 31.1668 35.2069 31.1668C34.1339 31.1668 33.4966 31.8714 33.2151 32.5536C33.1129 32.7974 33.0865 33.136 33.0865 33.4779V39.8487H29.2031C29.2031 39.8487 29.2552 29.5119 29.2031 28.4419H33.0868V30.0583C33.079 30.0711 33.068 30.0835 33.061 30.0957H33.0868V30.0583C33.6028 29.2828 34.5232 28.174 36.5865 28.174C39.1412 28.174 41.0566 29.8043 41.0566 33.3074ZM25.1408 22.9434C23.8124 22.9434 22.9434 23.795 22.9434 24.9139C22.9434 26.0091 23.7872 26.8854 25.0898 26.8854H25.115C26.4694 26.8854 27.3115 26.0091 27.3115 24.9139C27.2857 23.795 26.4694 22.9434 25.1408 22.9434ZM23.1742 39.849H27.0561V28.4419H23.1742V39.849Z" fill="white"/>
</svg>
