<svg width="53" height="53" viewBox="0 0 53 53" fill="none" xmlns="http://www.w3.org/2000/svg">
<path d="M42.2232 20.14C41.362 20.14 40.6774 20.8246 40.6774 21.6858V25.175C40.6774 32.9925 34.3174 39.3525 26.4999 39.3525C18.6824 39.3525 12.3224 32.9925 12.3224 25.175V21.6638C12.3224 20.8025 11.6378 20.1179 10.7765 20.1179C9.9153 20.1179 9.23071 20.8025 9.23071 21.6638V25.1529C9.23071 34.1408 16.1428 41.5388 24.954 42.3338V47.0375C24.954 47.8988 25.6386 48.5833 26.4999 48.5833C27.3611 48.5833 28.0457 47.8988 28.0457 47.0375V42.3338C36.8349 41.5608 43.769 34.1408 43.769 25.1529V21.6638C43.747 20.8246 43.0624 20.14 42.2232 20.14Z" fill="white"/>
<path d="M26.5001 4.41663C21.1118 4.41663 16.7393 8.78913 16.7393 14.1775V25.4841C16.7393 30.8725 21.1118 35.245 26.5001 35.245C31.8884 35.245 36.2609 30.8725 36.2609 25.4841V14.1775C36.2609 8.78913 31.8884 4.41663 26.5001 4.41663ZM29.393 19.7645C29.2384 20.3387 28.7305 20.7141 28.1563 20.7141C28.0459 20.7141 27.9355 20.692 27.8251 20.67C26.9638 20.427 26.0584 20.427 25.1972 20.67C24.4905 20.8687 23.8059 20.4491 23.6293 19.7645C23.4305 19.08 23.8501 18.3733 24.5347 18.1966C25.8376 17.8433 27.2068 17.8433 28.5097 18.1966C29.1722 18.3733 29.5697 19.08 29.393 19.7645ZM30.5634 15.4804C30.3647 16.0104 29.8788 16.3195 29.3488 16.3195C29.1943 16.3195 29.0618 16.2975 28.9072 16.2533C27.3613 15.6791 25.6388 15.6791 24.093 16.2533C23.4305 16.4962 22.6797 16.1429 22.4368 15.4804C22.1938 14.8179 22.5472 14.067 23.2097 13.8462C25.3297 13.0733 27.6705 13.0733 29.7905 13.8462C30.453 14.0891 30.8063 14.8179 30.5634 15.4804Z" fill="white"/>
</svg>
