<svg xmlns="http://www.w3.org/2000/svg" version="1.1" xmlns:xlink="http://www.w3.org/1999/xlink" width="512" height="512" x="0" y="0" viewBox="0 0 453.54 453.54" style="enable-background:new 0 0 512 512" xml:space="preserve"><g><path fill="#2A2E6D" d="M114.905 167.234c5.85 10.417 1.36 19.861 2.181 29.726.719 8.636 4.23 18.001 8.864 25.497 9.215 14.906 24.387 21.943 38.012 32.212 33.525 25.266 67.717 30.368 69.981-21.167 1.286-29.293 3.168-72.361-18.716-94.19-26.404-26.339-87.335-18.303-101.549 16.877" opacity="1" data-original="#2a2e6d"></path><path fill="#2A2E6D" d="M334.772 167.234c-5.849 10.417-1.36 19.861-2.18 29.726-.719 8.636-4.23 18.001-8.864 25.497-9.215 14.906-24.387 21.945-38.013 32.214-33.525 25.264-67.717 30.366-69.98-21.169-1.286-29.293-3.168-72.361 18.716-94.19 26.404-26.339 87.335-18.303 101.549 16.877" opacity="1" data-original="#2a2e6d"></path><path fill="#F9C5B8" d="M436.212 453.541c1.936-52.337-31.024-72.463-31.024-72.463l-138.865-78.504h-79.111l-138.86 78.504s-32.96 20.126-31.024 72.463z" opacity="1" data-original="#f9c5b8"></path><path fill="#F9C5B8" d="M177.335 312.729h98.869c-21.906-11.83-16.002-57.304-16.002-57.304h-66.864c0 .001 5.904 45.474-16.003 57.304z" opacity="1" data-original="#f9c5b8"></path><path fill="#F5A997" d="M191.968 289.613c23.621-2.696 46.741-10.615 67.522-22.319.081-6.982.712-11.868.712-11.868h-66.864s2.319 17.919-1.37 34.187zM342.094 154.114c-2.082 16.084-11.183 28.029-20.33 26.677-9.146-1.353-14.874-15.489-12.794-31.574 2.082-16.085 11.184-28.03 20.33-26.678 9.148 1.353 14.874 15.489 12.794 31.575z" opacity="1" data-original="#f5a997"></path><path fill="#E9837B" d="M321.635 168.849a2.762 2.762 0 0 1-2.678-2.101c-2.28-9.23-3.316-20.169 6.285-31.306a2.761 2.761 0 1 1 4.183 3.606c-8.335 9.669-7.007 18.685-5.108 26.377a2.76 2.76 0 0 1-2.682 3.424z" opacity="1" data-original="#e9837b"></path><path fill="#E9837B" d="M330.915 152.818c-.17 0-.343-.016-.518-.049-4.432-.839-8.997-.006-9.044.001a2.767 2.767 0 0 1-3.223-2.203 2.76 2.76 0 0 1 2.197-3.223c.227-.043 5.611-1.043 11.101 0a2.76 2.76 0 0 1-.513 5.474z" opacity="1" data-original="#e9837b"></path><path fill="#F5A997" d="M111.446 154.114c2.082 16.084 11.183 28.029 20.33 26.677 9.146-1.353 14.874-15.489 12.794-31.574-2.082-16.085-11.184-28.03-20.33-26.678-9.146 1.353-14.874 15.489-12.794 31.575z" opacity="1" data-original="#f5a997"></path><path fill="#E9837B" d="M131.905 168.849a2.76 2.76 0 0 1-2.683-3.424c1.899-7.692 3.228-16.708-5.108-26.377a2.761 2.761 0 1 1 4.184-3.606c9.601 11.137 8.565 22.076 6.285 31.306a2.762 2.762 0 0 1-2.678 2.101z" opacity="1" data-original="#e9837b"></path><path fill="#E9837B" d="M122.625 152.818a2.763 2.763 0 0 1-.513-5.475c5.492-1.044 10.874-.043 11.101 0a2.762 2.762 0 0 1-1.027 5.427c-.077-.015-4.627-.837-9.043-.001a2.784 2.784 0 0 1-.518.049z" opacity="1" data-original="#e9837b"></path><path fill="#F9C5B8" d="M319.409 115.571c-1.639-45.889-29.803-102.578-87.553-102.268h-11.802c-57.75-.311-85.912 56.378-87.553 102.268-1.648 46.124 12.494 99.318 41.218 127.607 13.468 13.261 33.898 19.639 52.236 19.959 18.336-.32 38.767-6.698 52.234-19.959 28.728-28.289 42.869-81.483 41.22-127.607z" opacity="1" data-original="#f9c5b8"></path><path fill="#2A2E6D" d="M319.517 119.901c-5.521-.333-8.171-.353-8.796 10.224 0 0-5.364 67.326-25.205 76.53-9.047.914-13.929-4.954-20.414-8.849-10.355-6.219-21.363 2.187-31.087 5.518-2.492.854-4.892 1.3-7.224 1.406-.278.007-.555.018-.836.016-.28.002-.558-.008-.836-.016-2.333-.106-4.732-.552-7.224-1.406-9.725-3.331-20.731-11.737-31.087-5.518-6.485 3.895-11.367 9.763-20.414 8.849-19.841-9.204-25.205-76.53-25.205-76.53-.625-10.577-3.275-10.557-8.796-10.224-.645 45.083 13.497 95.869 41.326 123.277 13.018 12.816 32.534 19.186 50.384 19.889.618.025 1.238.062 1.851.072 18.338-.32 38.769-6.698 52.236-19.961 27.831-27.408 41.973-78.194 41.327-123.277z" opacity="1" data-original="#2a2e6d"></path><path fill="#9CAAD8" d="m266.323 302.574 138.865 78.504s32.96 20.126 31.024 72.463H17.328c-1.936-52.337 31.024-72.463 31.024-72.463l138.86-78.504s41.925 25.743 79.111 0z" opacity="1" data-original="#9caad8"></path><path fill="#646DB2" d="m266.323 302.574 138.865 78.504s32.96 20.126 31.024 72.463H17.328c-1.936-52.337 31.024-72.463 31.024-72.463l138.86-78.504s41.925 25.743 79.111 0z" opacity="1" data-original="#646db2"></path><ellipse cx="184.687" cy="168.038" fill="#F6AFA8" rx="22.391" ry="10.171" opacity="1" data-original="#f6afa8"></ellipse><ellipse cx="267.225" cy="168.038" fill="#F6AFA8" rx="22.391" ry="10.171" opacity="1" data-original="#f6afa8"></ellipse><path fill="#2A2E6D" d="M201.63 116.034c-.272 2.625-2.346 4.384-4.633 4.165a47.65 47.65 0 0 0-24.43 4.052c-2.095.946-4.625-.049-5.731-2.447-1.103-2.392-.073-5.449 2.391-6.565a54.624 54.624 0 0 1 28.021-4.646c2.691.259 4.654 2.821 4.382 5.441zM250.282 116.034c.272 2.625 2.346 4.384 4.633 4.165a47.651 47.651 0 0 1 24.43 4.052c2.095.946 4.625-.049 5.731-2.447 1.103-2.392.073-5.449-2.391-6.565a54.624 54.624 0 0 0-28.021-4.646c-2.692.259-4.655 2.821-4.382 5.441z" opacity="1" data-original="#2a2e6d"></path><path fill="#E9837B" d="M225.034 200.348c-.35 0-.706-.068-1.05-.209-5.938-2.443-9.171-5.188-10.174-8.638-1.321-4.551 1.578-8.654 4.647-12.997 1.922-2.719 3.909-5.53 4.875-8.472a2.764 2.764 0 0 1 3.486-1.762 2.764 2.764 0 0 1 1.762 3.486c-1.225 3.728-3.556 7.026-5.612 9.936-2.28 3.226-4.433 6.273-3.854 8.269.332 1.142 1.811 2.948 6.972 5.071a2.762 2.762 0 0 1-1.052 5.316z" opacity="1" data-original="#e9837b"></path><ellipse cx="189.198" cy="143.993" fill="#2A2D6B" rx="7.362" ry="13.869" opacity="1" data-original="#2a2d6b"></ellipse><ellipse cx="262.713" cy="143.993" fill="#2A2D6B" rx="7.362" ry="13.869" opacity="1" data-original="#2a2d6b"></ellipse><path fill="#FFFFFF" d="M206.297 209.528c2.756 8.223 10.508 14.155 19.659 14.155 9.15 0 16.901-5.932 19.657-14.155z" opacity="1" data-original="#ffffff"></path><path fill="#2A2E6D" d="M226.77 7.39v35.597c-29.234.365-50.844 9.25-60.019 25.149-10.169 17.622-2.708 50.128-14.11 60.747-6.957 6.479-17.081-5.771-24.979-4.278-17.514.093-16.649 22.535-16.639 22.794.017-.003 1.765.009 0 .009-8.014-18.155-15.567-34.898-4.436-52.308 5.212-8.153 10.292-11.02 11.999-21.135 1.647-9.763-.372-18.181 3.652-27.036 12.978-28.562 43.104-41.236 72.4-45.786.001.001 29.371-5.104 32.132 6.247z" opacity="1" data-original="#2a2e6d"></path><path fill="#2A2E6D" d="M226.77 7.39v35.597c29.234.365 50.855 9.25 60.031 25.149 10.169 17.622 2.708 50.128 14.11 60.747 6.957 6.479 17.082-5.771 24.979-4.278 17.514.093 16.649 22.535 16.639 22.794-.017-.003-1.765.009 0 .009 8.014-18.155 15.567-34.898 4.436-52.308-5.212-8.153-10.292-11.02-11.999-21.135-1.647-9.763.372-18.181-3.652-27.036-12.978-28.562-43.104-41.236-72.4-45.786-.001.001-29.383-5.104-32.144 6.247z" opacity="1" data-original="#2a2e6d"></path><path fill="#FFFFFF" d="M178.942 181.343c-21.793 0-39.523-17.73-39.523-39.523s17.73-39.523 39.523-39.523c21.795 0 39.527 17.73 39.527 39.523s-17.732 39.523-39.527 39.523zm0-71.683c-17.733 0-32.16 14.427-32.16 32.16s14.427 32.16 32.16 32.16c17.735 0 32.164-14.427 32.164-32.16s-14.429-32.16-32.164-32.16zM272.993 181.343c-21.794 0-39.524-17.73-39.524-39.523s17.73-39.523 39.524-39.523c21.793 0 39.523 17.73 39.523 39.523s-17.73 39.523-39.523 39.523zm0-71.683c-17.734 0-32.161 14.427-32.161 32.16s14.427 32.16 32.161 32.16c17.733 0 32.16-14.427 32.16-32.16s-14.427-32.16-32.16-32.16z" opacity="1" data-original="#ffffff"></path><path fill="#FFFFFF" d="M144.275 154.915h-11.001a3.682 3.682 0 0 1 0-7.364h11.001a3.682 3.682 0 0 1 0 7.364zM318.637 154.915h-11.37a3.682 3.682 0 0 1 0-7.364h11.37a3.682 3.682 0 0 1 0 7.364zM214.786 146.026a3.682 3.682 0 0 1-2.84-6.023c.25-.303 6.207-7.418 14.526-7.418 5.03 0 9.636 2.496 13.692 7.418a3.682 3.682 0 1 1-5.683 4.683c-2.59-3.144-5.285-4.737-8.01-4.737-4.806 0-8.804 4.69-8.844 4.737a3.664 3.664 0 0 1-2.841 1.34z" opacity="1" data-original="#ffffff"></path></g></svg>