<svg width="64" height="64" viewBox="0 0 64 64" fill="none" xmlns="http://www.w3.org/2000/svg">
<circle cx="32" cy="32" r="25.3582" fill="#1F1F1F" style="mix-blend-mode:luminosity"/>
<circle cx="32" cy="32" r="25.3582" stroke="#10D6EF" stroke-width="13.2836"/>
<circle cx="32" cy="32" r="31" stroke="#0B9ACB" stroke-width="2"/>
<circle cx="31.765" cy="31.765" r="23.1008" fill="#2D2C32" stroke="#0BB6D4" stroke-width="1.32836"/>
<path d="M32.2967 20.4258C26.3251 20.4258 23.1494 24.4915 23.1494 28.9247C23.1494 30.9807 24.2307 33.5446 25.9615 34.3577C26.2244 34.4836 26.3674 34.4301 26.4259 34.1711C26.4777 33.9743 26.7051 33.0266 26.8154 32.5795C26.8494 32.4363 26.8317 32.3119 26.7228 32.1773C26.1481 31.4712 25.6919 30.1849 25.6919 28.9783C25.6919 25.8863 28.0056 22.884 31.9426 22.884C35.3471 22.884 37.7289 25.2337 37.7289 28.5948C37.7289 32.3929 35.8374 35.0204 33.3793 35.0204C32.0189 35.0204 31.0057 33.8861 31.3271 32.4826C31.7152 30.8114 32.4764 29.0144 32.4764 27.8092C32.4764 26.7284 31.9017 25.8342 30.7279 25.8342C29.3429 25.8342 28.2194 27.2912 28.2194 29.2474C28.2194 30.4902 28.6334 31.3294 28.6334 31.3294C28.6334 31.3294 27.2634 37.2095 27.0088 38.3077C26.5784 40.1669 27.0673 43.1779 27.1095 43.4369C27.1354 43.5801 27.2866 43.625 27.371 43.5078C27.5058 43.3197 29.1618 40.8093 29.6262 38.995C29.795 38.3337 30.4882 35.6527 30.4882 35.6527C30.9444 36.528 32.2613 37.2616 33.6639 37.2616C37.8365 37.2616 40.8515 33.3652 40.8515 28.5297C40.8366 23.8939 37.1025 20.4258 32.2967 20.4258Z" fill="white"/>
</svg>
