<svg width="77" height="77" viewBox="0 0 77 77" fill="none" xmlns="http://www.w3.org/2000/svg">
<circle cx="38.5" cy="31.5" r="31.5" fill="white"/>
<circle cx="38.5" cy="31.5" r="30.7888" stroke="#9B9B9B" stroke-opacity="0.60278" stroke-width="1.42236"/>
<path d="M35.9633 39.5254C35.7258 39.5254 35.4883 39.4379 35.3008 39.2504L27.7133 31.6629C27.3508 31.3004 27.3508 30.7004 27.7133 30.3379L35.3008 22.7504C35.6633 22.3879 36.2633 22.3879 36.6258 22.7504C36.9883 23.1129 36.9883 23.7129 36.6258 24.0754L29.7008 31.0004L36.6258 37.9254C36.9883 38.2879 36.9883 38.8879 36.6258 39.2504C36.4508 39.4379 36.2008 39.5254 35.9633 39.5254Z" fill="black"/>
<path d="M49.6254 31.9375H28.5879C28.0754 31.9375 27.6504 31.5125 27.6504 31C27.6504 30.4875 28.0754 30.0625 28.5879 30.0625H49.6254C50.1379 30.0625 50.5629 30.4875 50.5629 31C50.5629 31.5125 50.1379 31.9375 49.6254 31.9375Z" fill="black"/>
</svg>
