<svg width="132" height="132" viewBox="0 0 132 132" fill="none" xmlns="http://www.w3.org/2000/svg">
<path d="M66 86.625C54.615 86.625 45.375 77.385 45.375 66C45.375 54.615 54.615 45.375 66 45.375C77.385 45.375 86.625 54.615 86.625 66C86.625 77.385 77.385 86.625 66 86.625ZM66 53.625C59.18 53.625 53.625 59.18 53.625 66C53.625 72.82 59.18 78.375 66 78.375C72.82 78.375 78.375 72.82 78.375 66C78.375 59.18 72.82 53.625 66 53.625Z" fill="white"/>
<path d="M83.655 122.045C82.5 122.045 81.345 121.88 80.19 121.605C76.78 120.67 73.92 118.525 72.105 115.5L71.445 114.4C68.2 108.79 63.745 108.79 60.5 114.4L59.895 115.445C58.08 118.525 55.22 120.725 51.81 121.605C48.345 122.54 44.77 122.045 41.745 120.23L32.285 114.785C28.93 112.86 26.51 109.725 25.465 105.93C24.475 102.135 24.97 98.23 26.895 94.875C28.49 92.07 28.93 89.54 27.995 87.945C27.06 86.35 24.695 85.415 21.45 85.415C13.42 85.415 6.875 78.87 6.875 70.84V61.16C6.875 53.13 13.42 46.585 21.45 46.585C24.695 46.585 27.06 45.65 27.995 44.055C28.93 42.46 28.545 39.93 26.895 37.125C24.97 33.77 24.475 29.81 25.465 26.07C26.455 22.275 28.875 19.14 32.285 17.215L41.8 11.77C48.015 8.08499 56.21 10.23 59.95 16.555L60.61 17.655C63.855 23.265 68.31 23.265 71.555 17.655L72.16 16.61C75.9 10.23 84.095 8.08499 90.365 11.825L99.825 17.27C103.18 19.195 105.6 22.33 106.645 26.125C107.635 29.92 107.14 33.825 105.215 37.18C103.62 39.985 103.18 42.515 104.115 44.11C105.05 45.705 107.415 46.64 110.66 46.64C118.69 46.64 125.235 53.185 125.235 61.215V70.895C125.235 78.925 118.69 85.47 110.66 85.47C107.415 85.47 105.05 86.405 104.115 88C103.18 89.595 103.565 92.125 105.215 94.93C107.14 98.285 107.69 102.245 106.645 105.985C105.655 109.78 103.235 112.915 99.825 114.84L90.31 120.285C88.22 121.44 85.965 122.045 83.655 122.045ZM66 101.695C70.895 101.695 75.46 104.775 78.595 110.22L79.2 111.265C79.86 112.42 80.96 113.245 82.28 113.575C83.6 113.905 84.92 113.74 86.02 113.08L95.535 107.58C96.965 106.755 98.065 105.38 98.505 103.73C98.945 102.08 98.725 100.375 97.9 98.945C94.765 93.555 94.38 88 96.8 83.765C99.22 79.53 104.225 77.11 110.495 77.11C114.015 77.11 116.82 74.305 116.82 70.785V61.105C116.82 57.64 114.015 54.78 110.495 54.78C104.225 54.78 99.22 52.36 96.8 48.125C94.38 43.89 94.765 38.335 97.9 32.945C98.725 31.515 98.945 29.81 98.505 28.16C98.065 26.51 97.02 25.19 95.59 24.31L86.075 18.865C83.71 17.435 80.575 18.26 79.145 20.68L78.54 21.725C75.405 27.17 70.84 30.25 65.945 30.25C61.05 30.25 56.485 27.17 53.35 21.725L52.745 20.625C51.37 18.315 48.29 17.49 45.925 18.865L36.41 24.365C34.98 25.19 33.88 26.565 33.44 28.215C33 29.865 33.22 31.57 34.045 33C37.18 38.39 37.565 43.945 35.145 48.18C32.725 52.415 27.72 54.835 21.45 54.835C17.93 54.835 15.125 57.64 15.125 61.16V70.84C15.125 74.305 17.93 77.165 21.45 77.165C27.72 77.165 32.725 79.585 35.145 83.82C37.565 88.055 37.18 93.61 34.045 99C33.22 100.43 33 102.135 33.44 103.785C33.88 105.435 34.925 106.755 36.355 107.635L45.87 113.08C47.025 113.795 48.4 113.96 49.665 113.63C50.985 113.3 52.085 112.42 52.8 111.265L53.405 110.22C56.54 104.83 61.105 101.695 66 101.695Z" fill="white"/>
</svg>
