<svg width="141" height="177" viewBox="0 0 141 177" fill="none" xmlns="http://www.w3.org/2000/svg">
<path d="M170.974 108.372C167.823 108.372 165.17 105.968 164.755 102.817C162.765 84.0778 152.649 67.0798 137.061 56.3007C134.242 54.3107 133.579 50.4965 135.486 47.6773C137.476 44.8582 141.373 44.1948 144.109 46.1019C162.682 58.954 174.622 79.1857 177.027 101.49C177.359 104.89 174.954 107.958 171.472 108.372C171.389 108.372 171.14 108.372 170.974 108.372Z" fill="white" fill-opacity="0.19"/>
<path d="M28.9379 108.787C28.6891 108.787 28.5233 108.787 28.2745 108.787C24.875 108.372 22.3875 105.304 22.7191 101.904C24.9579 79.5999 36.815 59.4511 55.1395 46.4332C57.9587 44.4432 61.8558 45.1066 63.8458 47.9257C65.8358 50.7449 65.1725 54.642 62.3533 56.632C46.9308 67.4941 36.9808 84.492 35.0737 103.231C34.825 106.382 32.0887 108.787 28.9379 108.787Z" fill="white" fill-opacity="0.19"/>
<path d="M99.9979 187.475C87.7262 187.475 76.0349 184.656 65.0899 179.183C62.022 177.608 60.7783 173.877 62.3537 170.809C63.9291 167.741 67.6604 166.497 70.7283 168.072C88.6383 177.11 110.197 177.276 128.272 168.57C131.34 167.077 135.072 168.404 136.564 171.472C138.057 174.54 136.73 178.271 133.662 179.764C123.049 184.905 111.772 187.475 99.9979 187.475Z" fill="white" fill-opacity="0.19"/>
<path d="M99.9981 69.9815C83.8294 69.9815 70.7285 56.8807 70.7285 40.712C70.7285 24.5432 83.8294 11.4424 99.9981 11.4424C116.167 11.4424 129.268 24.5432 129.268 40.712C129.268 56.8807 116.084 69.9815 99.9981 69.9815ZM99.9981 23.9628C90.7114 23.9628 83.166 31.5082 83.166 40.7949C83.166 50.0815 90.7114 57.627 99.9981 57.627C109.285 57.627 116.83 50.0815 116.83 40.7949C116.83 31.5082 109.202 23.9628 99.9981 23.9628Z" fill="white" fill-opacity="0.19"/>
<path d="M40.0489 171.389C23.8801 171.389 10.7793 158.288 10.7793 142.119C10.7793 126.033 23.8801 112.85 40.0489 112.85C56.2176 112.85 69.3185 125.95 69.3185 142.119C69.3185 158.205 56.2176 171.389 40.0489 171.389ZM40.0489 125.287C30.7622 125.287 23.2168 132.833 23.2168 142.119C23.2168 151.406 30.7622 158.951 40.0489 158.951C49.3355 158.951 56.881 151.406 56.881 142.119C56.881 132.833 49.3355 125.287 40.0489 125.287Z" fill="white" fill-opacity="0.19"/>
<path d="M158.951 171.389C142.782 171.389 129.682 158.288 129.682 142.119C129.682 126.033 142.782 112.85 158.951 112.85C175.12 112.85 188.221 125.95 188.221 142.119C188.138 158.205 175.037 171.389 158.951 171.389ZM158.951 125.287C149.665 125.287 142.119 132.833 142.119 142.119C142.119 151.406 149.665 158.951 158.951 158.951C168.238 158.951 175.783 151.406 175.783 142.119C175.7 132.833 168.238 125.287 158.951 125.287Z" fill="white" fill-opacity="0.19"/>
</svg>
