<svg width="50" height="50" viewBox="0 0 50 50" fill="none" xmlns="http://www.w3.org/2000/svg">
<circle cx="25" cy="25" r="18.3582" fill="#1F1F1F" style="mix-blend-mode:luminosity"/>
<circle cx="25" cy="25" r="18.3582" stroke="#10D6EF" stroke-width="13.2836"/>
<circle cx="25" cy="25" r="24" stroke="#0B9ACB" stroke-width="2"/>
<circle cx="25.3233" cy="25.3228" r="17.9022" fill="#2D2C32" stroke="#0BB6D4" stroke-width="1.32836"/>
<path d="M25.0936 32.4325C25.0553 32.4325 25.0176 32.4314 24.98 32.4296H24.9798C24.9559 32.4314 24.9308 32.4325 24.9057 32.4325C24.025 32.4325 23.4599 32.0455 22.9133 31.6712C22.5359 31.413 22.1798 31.1691 21.7602 31.1014C21.5555 31.0686 21.3516 31.0519 21.1546 31.0519C20.7998 31.0519 20.5199 31.105 20.3155 31.1438C20.1914 31.1673 20.0841 31.1875 20.0028 31.1875C19.9178 31.1875 19.8256 31.1696 19.7855 31.0371C19.7506 30.9222 19.7255 30.8109 19.7013 30.7035C19.6389 30.4264 19.5945 30.2561 19.4747 30.2383C18.078 30.0294 17.6783 29.7444 17.5891 29.5423C17.5764 29.5134 17.5692 29.4845 17.5676 29.4558C17.5631 29.378 17.6198 29.3095 17.6992 29.2969C19.8461 28.9545 20.809 26.8293 20.849 26.7389C20.8501 26.7364 20.8513 26.734 20.8524 26.7315C20.9839 26.4736 21.0095 26.2496 20.9291 26.0663C20.7818 25.7299 20.3013 25.5821 19.9831 25.4843C19.9053 25.4605 19.8316 25.4378 19.7733 25.4157C19.1386 25.1727 19.0858 24.9232 19.1107 24.796C19.1532 24.5793 19.4522 24.4283 19.6939 24.4283C19.7603 24.4283 19.8186 24.4397 19.8677 24.4619C20.1533 24.5915 20.4105 24.6572 20.6327 24.6572C20.9395 24.6572 21.0733 24.5322 21.0898 24.5159C21.0819 24.375 21.0722 24.2281 21.0624 24.0764C20.9985 23.0933 20.9191 21.8717 21.2403 21.1743C22.2028 19.0841 24.244 18.9218 24.8465 18.9218C24.862 18.9218 25.1108 18.9191 25.1108 18.9191L25.1465 18.9189C25.7505 18.9189 27.7962 19.0817 28.7592 21.173C29.0804 21.8708 29.001 23.0933 28.9369 24.0757L28.9343 24.1184C28.9253 24.2553 28.9167 24.3883 28.9095 24.5155C28.925 24.5307 29.0481 24.6456 29.3262 24.6558H29.3266C29.538 24.648 29.7809 24.5827 30.0475 24.4618C30.1258 24.4266 30.2125 24.4191 30.2715 24.4191C30.3618 24.4191 30.4533 24.4359 30.5291 24.4667L30.5337 24.4684C30.7493 24.5426 30.8907 24.6888 30.8937 24.8419C30.8965 24.9858 30.7831 25.2025 30.226 25.4156C30.1683 25.4375 30.0945 25.4601 30.0164 25.4843C29.698 25.5821 29.2175 25.7297 29.0704 26.0659C28.9898 26.2495 29.0156 26.4731 29.1469 26.7313C29.1482 26.7337 29.1494 26.7361 29.1505 26.7388C29.1905 26.8289 30.1525 28.9537 32.3005 29.2966C32.3797 29.3092 32.4364 29.3777 32.432 29.4554C32.4303 29.4847 32.4229 29.5139 32.4101 29.5425C32.3216 29.7432 31.922 30.0277 30.5247 30.2369C30.4108 30.2538 30.3665 30.3978 30.2984 30.7C30.2735 30.8099 30.2485 30.9179 30.2139 31.0315C30.1842 31.13 30.1209 31.1761 30.0141 31.1761H29.9967C29.9228 31.1761 29.8174 31.1633 29.6841 31.1378C29.4476 31.0931 29.1822 31.0518 28.8449 31.0518C28.6479 31.0518 28.444 31.0684 28.2391 31.1013C27.8199 31.169 27.4639 31.4123 27.0873 31.6703C26.5397 32.0455 25.9744 32.4325 25.0936 32.4325Z" fill="white"/>
</svg>
