<svg width="143" height="162" viewBox="0 0 143 162" fill="none" xmlns="http://www.w3.org/2000/svg">
<path d="M113.749 172.521H68.2493C27.0718 172.521 9.47852 154.928 9.47852 113.75V68.2503C9.47852 27.0728 27.0718 9.47949 68.2493 9.47949H113.749C154.927 9.47949 172.52 27.0728 172.52 68.2503V113.75C172.52 154.928 154.927 172.521 113.749 172.521ZM68.2493 20.8545C33.2902 20.8545 20.8535 33.2912 20.8535 68.2503V113.75C20.8535 148.709 33.2902 161.146 68.2493 161.146H113.749C148.709 161.146 161.145 148.709 161.145 113.75V68.2503C161.145 33.2912 148.709 20.8545 113.749 20.8545H68.2493Z" fill="white" fill-opacity="0.19"/>
<path d="M162.889 59.6055H19.1094C16.0002 59.6055 13.4219 57.0271 13.4219 53.918C13.4219 50.8088 15.9244 48.2305 19.1094 48.2305H162.889C165.999 48.2305 168.577 50.8088 168.577 53.918C168.577 57.0271 166.074 59.6055 162.889 59.6055Z" fill="white" fill-opacity="0.19"/>
<path d="M64.6094 58.5435C61.5002 58.5435 58.9219 55.9651 58.9219 52.856V16.001C58.9219 12.8918 61.5002 10.3135 64.6094 10.3135C67.7185 10.3135 70.2969 12.8918 70.2969 16.001V52.856C70.2969 55.9651 67.7185 58.5435 64.6094 58.5435Z" fill="white" fill-opacity="0.19"/>
<path d="M117.391 55.131C114.281 55.131 111.703 52.5526 111.703 49.4435V16.001C111.703 12.8918 114.281 10.3135 117.391 10.3135C120.5 10.3135 123.078 12.8918 123.078 16.001V49.4435C123.078 52.6285 120.576 55.131 117.391 55.131Z" fill="white" fill-opacity="0.19"/>
<path d="M84.0992 137.41C81.3692 137.41 78.7908 136.727 76.44 135.438C71.2833 132.405 68.25 126.338 68.25 118.679V100.479C68.25 92.8196 71.2833 86.6771 76.5158 83.6437C81.7483 80.6104 88.5733 81.0654 95.1708 84.9329L110.944 94.0329C117.542 97.8246 121.409 103.512 121.409 109.579C121.409 115.645 117.542 121.333 110.868 125.125L95.095 134.225C91.455 136.348 87.6633 137.41 84.0992 137.41ZM84.175 93.0471C83.4167 93.0471 82.7342 93.1987 82.2033 93.5021C80.6108 94.4121 79.625 96.9904 79.625 100.479V118.679C79.625 122.091 80.6108 124.67 82.2033 125.655C83.7958 126.565 86.5258 126.11 89.4833 124.366L105.257 115.266C108.214 113.522 110.034 111.399 110.034 109.579C110.034 107.759 108.29 105.635 105.257 103.891L89.4833 94.7912C87.5117 93.6537 85.6158 93.0471 84.175 93.0471Z" fill="white" fill-opacity="0.19"/>
</svg>
