<svg xmlns="http://www.w3.org/2000/svg" version="1.1" xmlns:xlink="http://www.w3.org/1999/xlink" width="512" height="512" x="0" y="0" viewBox="0 0 682.667 682.667" style="enable-background:new 0 0 512 512" xml:space="preserve"><g><defs><clipPath id="a" clipPathUnits="userSpaceOnUse"><path d="M0 512h512V0H0Z" fill="#000000" opacity="1" data-original="#000000"></path></clipPath></defs><g clip-path="url(#a)" transform="matrix(1.33333 0 0 -1.33333 0 682.667)"><path d="M0 0h-30c-24.853 0-45-20.147-45-45 0-8.284-6.716-15-15-15-8.284 0-15 6.716-15 15v208.5h-30V-45c0-24.853 20.147-45 45-45s45 20.147 45 45c0 8.284 6.716 15 15 15H0c8.284 0 15 6.716 15 15C15-6.716 8.284 0 0 0" style="fill-opacity:1;fill-rule:nonzero;stroke:none" transform="translate(466 141)" fill="#69C3ED" data-original="#69c3ed"></path><path d="M0 0v-208.5c0-8.284-6.716-15-15-15-8.284 0-15 6.716-15 15 0 24.853-20.147 45-45 45h-30c-8.284 0-15-6.716-15-15 0-8.284 6.716-15 15-15h30c8.284 0 15-6.716 15-15 0-24.853 20.147-45 45-45s45 20.147 45 45V0Z" style="fill-opacity:1;fill-rule:nonzero;stroke:none" transform="translate(151 304.5)" fill="#69C3ED" data-original="#69c3ed"></path><path d="M0 0c-8.284 0-15 6.716-15 15v282h30V15C15 6.716 8.284 0 0 0" style="fill-opacity:1;fill-rule:nonzero;stroke:none" transform="translate(226 7.5)" fill="#69C3ED" data-original="#69c3ed"></path><path d="M0 0v-125c0 8.284 6.716 15 15 15 8.284 0 15-6.716 15-15V0Z" style="fill-opacity:1;fill-rule:nonzero;stroke:none" transform="translate(211 304.5)" fill="#4CB6E5" data-original="#4cb6e5"></path><path d="M0 0c-8.284 0-15 6.716-15 15v282h30V15C15 6.716 8.284 0 0 0" style="fill-opacity:1;fill-rule:nonzero;stroke:none" transform="translate(286 7.5)" fill="#69C3ED" data-original="#69c3ed"></path><path d="M0 0v-125c0 8.284 6.716 15 15 15 8.284 0 15-6.716 15-15V0Z" style="fill-opacity:1;fill-rule:nonzero;stroke:none" transform="translate(271 304.5)" fill="#4CB6E5" data-original="#4cb6e5"></path><path d="M0 0v-125c0 8.284 6.716 15 15 15 8.284 0 15-6.716 15-15V0Z" style="fill-opacity:1;fill-rule:nonzero;stroke:none" transform="translate(331 304.5)" fill="#4CB6E5" data-original="#4cb6e5"></path><path d="M0 0v-125c0 8.284 6.716 15 15 15 8.284 0 15-6.716 15-15V0Z" style="fill-opacity:1;fill-rule:nonzero;stroke:none" transform="translate(151 304.5)" fill="#4CB6E5" data-original="#4cb6e5"></path><path d="M0 0c0-7.214 7.401-12.039 14.017-9.164C31.04-1.768 35.583 18.107 60.002 18.107c30.001 0 30.001-30 60.002-30 29.999 0 29.999 30 59.999 30 24.416 0 28.96-19.874 45.98-27.27C232.599-12.039 240-7.213 240 0v78.107H0Z" style="fill-opacity:1;fill-rule:nonzero;stroke:none" transform="translate(136 236.393)" fill="#86D1F6" data-original="#86d1f6"></path><path d="M0 0c17.023 7.396 21.566 27.271 45.985 27.271 30.001 0 30.001-30 60.002-30 29.999 0 29.999 30 59.999 30 24.416 0 28.96-19.874 45.98-27.27 6.616-2.875 14.017 1.95 14.017 9.163v33.107h-135c-16.568 0-30 13.431-30 30v15h-75V9.164C-14.017 1.95-6.616-2.874 0 0" style="fill-opacity:1;fill-rule:nonzero;stroke:none" transform="translate(150.017 227.23)" fill="#69C3ED" data-original="#69c3ed"></path><path d="M0 0h-240c-22.091 0-40 17.909-40 40 0 88.366 71.634 160 160 160S40 128.366 40 40C40 17.909 22.091 0 0 0" style="fill-opacity:1;fill-rule:nonzero;stroke:none" transform="translate(376 304.5)" fill="#A3DEFE" data-original="#a3defe"></path><path d="M0 0c0 74.554 50.991 137.198 120 154.959C107.215 158.25 93.812 160 80 160-8.366 160-80 88.366-80 0c0-22.091 17.909-40 40-40h80C17.909-40 0-22.091 0 0" style="fill-opacity:1;fill-rule:nonzero;stroke:none" transform="translate(176 344.5)" fill="#86D1F6" data-original="#86d1f6"></path><path d="M0 0c0-12.925-13.157-23.402-29.387-23.402-16.231 0-29.388 10.477-29.388 23.402s13.157 23.403 29.388 23.403C-13.157 23.403 0 12.925 0 0" style="fill-opacity:1;fill-rule:nonzero;stroke:none" transform="translate(205.743 396.231)" fill="#EDA1AB" data-original="#eda1ab"></path><path d="M0 0c0-12.925 13.157-23.402 29.387-23.402 16.231 0 29.388 10.477 29.388 23.402S45.618 23.403 29.387 23.403C13.157 23.403 0 12.925 0 0" style="fill-opacity:1;fill-rule:nonzero;stroke:none" transform="translate(306.257 396.231)" fill="#EDA1AB" data-original="#eda1ab"></path><path d="M0 0c0 14.643-10.608 16.019-23.693 16.019-13.086 0-23.694-1.376-23.694-16.019 0-14.643 10.608-26.513 23.694-26.513C-10.608-26.513 0-14.643 0 0" style="fill-opacity:1;fill-rule:nonzero;stroke:none" transform="translate(279.693 414.212)" fill="#4E5660" data-original="#4e5660"></path><path d="M0 0v-12" style="stroke-linecap: round; stroke-linejoin: round; stroke-miterlimit: 10; stroke-dasharray: none; stroke-opacity: 1;" transform="translate(181.268 436.171)" fill="none" stroke="#000000" stroke-width="15px" stroke-linecap="round" stroke-linejoin="round" stroke-miterlimit="10" stroke-dasharray="none" stroke-opacity="" data-original="#000000"></path><path d="M0 0c0 14.643-10.608 16.019-23.693 16.019-13.086 0-23.694-1.376-23.694-16.019 0-14.643 10.608-26.513 23.694-26.513C-10.608-26.513 0-14.643 0 0Z" style="stroke-linecap: round; stroke-linejoin: round; stroke-miterlimit: 10; stroke-dasharray: none; stroke-opacity: 1;" transform="translate(279.693 414.213)" fill="none" stroke="#000000" stroke-width="15px" stroke-linecap="round" stroke-linejoin="round" stroke-miterlimit="10" stroke-dasharray="none" stroke-opacity="" data-original="#000000"></path><path d="M0 0v-12" style="stroke-linecap: round; stroke-linejoin: round; stroke-miterlimit: 10; stroke-dasharray: none; stroke-opacity: 1;" transform="translate(330.732 436.171)" fill="none" stroke="#000000" stroke-width="15px" stroke-linecap="round" stroke-linejoin="round" stroke-miterlimit="10" stroke-dasharray="none" stroke-opacity="" data-original="#000000"></path><path d="M0 0v-153.167c0-24.853 20.147-45 45-45v0c24.853 0 45 20.147 45 45v0c0 8.284 6.716 15 15 15h30c8.284 0 15 6.716 15 15v0c0 8.284-6.716 15-15 15h-30c-24.853 0-45-20.147-45-45v0c0-8.284-6.716-15-15-15-8.284 0-15 6.716-15 15V-23" style="stroke-linecap: round; stroke-linejoin: round; stroke-miterlimit: 10; stroke-dasharray: none; stroke-opacity: 1;" transform="translate(331 249.167)" fill="none" stroke="#000000" stroke-width="15px" stroke-linecap="round" stroke-linejoin="round" stroke-miterlimit="10" stroke-dasharray="none" stroke-opacity="" data-original="#000000"></path><path d="M0 0v106.25" style="stroke-linecap: round; stroke-linejoin: round; stroke-miterlimit: 10; stroke-dasharray: none; stroke-opacity: 1;" transform="translate(181 143.75)" fill="none" stroke="#000000" stroke-width="15px" stroke-linecap="round" stroke-linejoin="round" stroke-miterlimit="10" stroke-dasharray="none" stroke-opacity="" data-original="#000000"></path><path d="M0 0v-130.5c0-8.284-6.716-15-15-15v0c-8.284 0-15 6.716-15 15v0c0 24.853-20.147 45-45 45h-30c-8.284 0-15-6.715-15-15v0c0-8.284 6.716-15 15-15h30c8.284 0 15-6.715 15-15v0c0-24.853 20.147-45 45-45v0c24.853 0 45 20.147 45 45v17.75" style="stroke-linecap: round; stroke-linejoin: round; stroke-miterlimit: 10; stroke-dasharray: none; stroke-opacity: 1;" transform="translate(151 226.5)" fill="none" stroke="#000000" stroke-width="15px" stroke-linecap="round" stroke-linejoin="round" stroke-miterlimit="10" stroke-dasharray="none" stroke-opacity="" data-original="#000000"></path><path d="M0 0v-203.5c0-8.284-6.716-15-15-15v0c-8.284 0-15 6.716-15 15V24" style="stroke-linecap: round; stroke-linejoin: round; stroke-miterlimit: 10; stroke-dasharray: none; stroke-opacity: 1;" transform="translate(241 226)" fill="none" stroke="#000000" stroke-width="15px" stroke-linecap="round" stroke-linejoin="round" stroke-miterlimit="10" stroke-dasharray="none" stroke-opacity="" data-original="#000000"></path><path d="M0 0v-227.5c0-8.284-6.716-15-15-15v0c-8.284 0-15 6.716-15 15v204.125" style="stroke-linecap: round; stroke-linejoin: round; stroke-miterlimit: 10; stroke-dasharray: none; stroke-opacity: 1;" transform="translate(301 250)" fill="none" stroke="#000000" stroke-width="15px" stroke-linecap="round" stroke-linejoin="round" stroke-miterlimit="10" stroke-dasharray="none" stroke-opacity="" data-original="#000000"></path><path d="M0 0v-66.607c0-7.213 7.401-12.038 14.017-9.164C31.04-68.375 35.583-48.5 60.002-48.5c30.001 0 30.001-30 60.002-30 29.999 0 29.999 30 59.999 30 24.416 0 28.96-19.874 45.98-27.27C232.599-78.645 240-73.82 240-66.606V-.75" style="stroke-linecap: round; stroke-linejoin: round; stroke-miterlimit: 10; stroke-dasharray: none; stroke-opacity: 1;" transform="translate(136 303)" fill="none" stroke="#000000" stroke-width="15px" stroke-linecap="round" stroke-linejoin="round" stroke-miterlimit="10" stroke-dasharray="none" stroke-opacity="" data-original="#000000"></path><path d="M0 0h-179.732c-22.092 0-40 17.909-40 40v0c0 88.366 71.634 160 160 160v0c88.365 0 160-71.634 160-160v0c0-22.091-17.909-40-40-40H30" style="stroke-linecap: round; stroke-linejoin: round; stroke-miterlimit: 10; stroke-dasharray: none; stroke-opacity: 1;" transform="translate(315.732 304.5)" fill="none" stroke="#000000" stroke-width="15px" stroke-linecap="round" stroke-linejoin="round" stroke-miterlimit="10" stroke-dasharray="none" stroke-opacity="" data-original="#000000"></path></g></g></svg>