<svg width="800" height="792" viewBox="0 0 800 792" fill="none" xmlns="http://www.w3.org/2000/svg">
<path d="M649.976 338.414C596.268 331.855 578.949 291.193 611.343 247.868C630.07 222.75 625.075 187.206 599.957 168.479L552.21 132.835C530.472 116.026 499.191 120.638 482.382 142.377L478.43 147.616C446.036 190.941 402.12 185.578 380.807 135.695L378.231 129.658C367.741 104.586 338.49 92.5822 313.345 103.666L258.424 126.773C229.538 138.906 216.1 172.499 228.232 201.386C249.582 250.972 222.986 286.272 169.279 279.714C138.419 275.945 109.821 298.051 106.016 329.207L99.6386 381.431C95.8702 412.291 117.976 440.889 149.132 444.694C202.84 451.252 220.159 491.914 187.468 535.203C168.741 560.321 173.737 595.865 198.854 614.592L246.601 650.236C268.339 667.045 299.62 662.433 316.429 640.694L320.381 635.455C352.775 592.13 396.691 597.493 418.004 647.376L420.58 653.413C431.663 678.557 460.915 690.561 486.059 679.478L540.98 656.371C569.867 644.238 583.305 610.644 571.136 582.055C549.823 532.171 576.419 496.872 630.126 503.43C660.986 507.198 689.584 485.093 693.389 453.937L699.766 401.713C703.238 370.817 681.132 342.218 649.976 338.414ZM387.778 487.99C334.664 481.504 296.632 432.892 303.118 379.777C309.604 326.663 358.216 288.632 411.33 295.118C464.444 301.604 502.476 350.216 495.99 403.33C489.504 456.444 440.892 494.476 387.778 487.99Z" fill="url(#paint0_linear_2369_2720)"/>
<defs>
<linearGradient id="paint0_linear_2369_2720" x1="433.904" y1="111.494" x2="365.501" y2="671.649" gradientUnits="userSpaceOnUse">
<stop stop-color="white" stop-opacity="0.96"/>
<stop offset="1" stop-color="#999999" stop-opacity="0"/>
</linearGradient>
</defs>
</svg>
